<svg version="1.1" id="Layer_1" xmlns="http://www.w3.org/2000/svg" xmlns:xlink="http://www.w3.org/1999/xlink" x="0px" y="0px"
	 width="100%" viewBox="0 0 500 500" enable-background="new 0 0 500 500" xml:space="preserve">
<path fill="#00BF63" opacity="1.000000" stroke="none" 
	d="
M317.000000,501.000000 
	C212.666687,501.000000 108.833359,500.978333 5.000182,501.095459 
	C1.576269,501.099335 0.903035,500.423828 0.905300,497.000000 
	C1.013778,333.000092 1.013757,169.000137 0.905338,5.000256 
	C0.903075,1.576976 1.575765,0.903020 4.999867,0.905285 
	C168.999756,1.013775 332.999725,1.013760 496.999634,0.905354 
	C500.422638,0.903091 501.096985,1.575413 501.094727,4.999748 
	C500.986206,168.999634 500.986237,332.999603 501.094604,496.999512 
	C501.096893,500.422272 500.425964,501.104675 497.000214,501.096985 
	C437.167053,500.962646 377.333466,501.000000 317.000000,501.000000 
z"/>
<path fill="#FBF8F6" opacity="1.000000" stroke="none" 
	d="
M370.161682,305.199493 
	C351.429321,348.397003 319.180237,375.067017 273.937775,385.854156 
	C224.230911,397.705719 167.487762,375.899841 137.503983,334.249786 
	C121.069672,311.421112 111.646675,286.107758 111.347694,258.072266 
	C110.852058,211.596985 129.039307,173.682755 166.602310,145.888306 
	C195.152573,124.762794 227.401306,116.680565 262.723541,120.951653 
	C318.367828,127.680061 364.743378,169.937744 376.928741,225.062531 
	C382.959961,252.346634 380.570923,278.914642 370.161682,305.199493 
z"/>
<path fill="#180D25" opacity="1.000000" stroke="none" 
	d="
M170.256287,345.773071 
	C193.865051,364.654419 220.590057,374.193695 250.260925,371.549805 
	C296.508423,367.428802 330.674469,343.716705 350.639038,301.879608 
	C369.708099,261.919067 368.016754,222.011353 343.185913,184.652588 
	C312.976349,139.201401 253.625366,123.404587 203.954071,146.728088 
	C165.929794,164.582626 143.579010,195.162598 133.200104,235.061325 
	C127.294319,257.764404 128.841766,280.227844 137.461884,302.146240 
	C137.904068,303.270569 140.057281,304.853210 138.095398,305.803131 
	C136.024628,306.805756 135.513062,304.407074 134.918869,302.941284 
	C127.634140,284.970947 125.455170,266.188721 127.281570,247.076309 
	C132.503647,192.430145 170.565109,148.424942 223.952637,134.724869 
	C286.734955,118.613937 351.356049,158.711243 364.906555,222.186584 
	C379.017792,288.288544 339.850769,354.461945 274.578796,372.245117 
	C230.476791,384.260620 191.372589,373.521454 158.753296,340.936890 
	C157.576752,339.761597 156.431152,338.533936 155.431015,337.209869 
	C154.542297,336.033295 153.453430,334.567566 155.100586,333.294830 
	C156.684128,332.071259 157.375946,333.840057 158.277267,334.675720 
	C162.181442,338.295502 166.076141,341.925537 170.256287,345.773071 
z"/>
<path fill="#09C168" opacity="1.000000" stroke="none" 
	d="
M256.670624,232.900818 
	C257.462891,244.249817 257.691803,255.229553 260.028625,266.017090 
	C260.804932,269.600586 259.405243,271.775055 255.446152,270.392059 
	C253.789597,269.813354 252.940704,270.741333 251.808578,271.220276 
	C245.732773,273.790649 240.073090,273.144043 236.102524,269.031067 
	C231.588577,264.355225 231.029465,258.719208 233.066406,252.809814 
	C234.955185,247.330276 239.985199,243.815048 246.262115,244.119751 
	C249.753845,244.289246 250.589386,243.289627 250.112732,240.106049 
	C249.819366,238.146591 249.940674,236.123337 249.900009,234.128235 
	C249.861679,232.247025 249.901581,230.359421 252.178787,229.694397 
	C254.668671,228.967255 255.891968,230.338623 256.670624,232.900818 
z"/>
<path fill="#09C168" opacity="1.000000" stroke="none" 
	d="
M145.583588,257.537354 
	C143.755829,244.295334 143.756607,244.299774 156.363907,242.093430 
	C160.181686,241.425293 164.019562,241.487137 167.789719,242.197311 
	C169.762756,242.568970 172.638763,242.702026 172.321396,245.727615 
	C172.004456,248.749130 169.557739,249.054672 167.003769,248.691940 
	C162.807510,248.095978 158.743317,248.837738 154.666962,249.797836 
	C149.643021,250.981125 153.002243,254.304810 152.960251,256.590698 
	C152.901489,259.790527 155.303360,258.013855 156.484375,257.687256 
	C159.747284,256.784912 163.079803,256.826080 166.384674,256.595917 
	C168.590378,256.442322 170.964722,256.643707 171.185349,259.640961 
	C171.418350,262.806488 169.076630,263.442719 166.637405,263.765625 
	C163.684509,264.156494 160.706772,263.924835 157.736740,264.710022 
	C154.725845,265.506012 153.590912,266.756012 154.328796,269.922882 
	C155.004791,272.824005 155.133316,275.849182 155.583450,278.807495 
	C156.049454,281.869995 156.711761,285.363861 152.461777,285.834381 
	C148.195709,286.306641 148.703796,282.300293 148.333115,279.764709 
	C147.274872,272.526215 146.534683,265.241241 145.583588,257.537354 
z"/>
<path fill="#0AC169" opacity="1.000000" stroke="none" 
	d="
M347.277954,260.277893 
	C340.046448,260.865417 336.355133,259.019348 334.217377,254.024918 
	C331.416321,247.480835 332.899872,240.352615 338.006683,235.817856 
	C342.555573,231.778534 349.493256,230.785751 354.219360,233.483383 
	C355.764740,234.365494 356.637665,235.387863 356.413300,237.448563 
	C355.771393,243.344437 356.715302,248.936172 359.903687,254.127548 
	C361.607208,256.901245 359.665802,260.222656 357.395294,258.951385 
	C353.428009,256.730164 350.848022,259.618347 347.277954,260.277893 
z"/>
<path fill="#09C168" opacity="1.000000" stroke="none" 
	d="
M262.581421,247.322296 
	C261.298340,243.856033 262.541351,242.023438 265.734314,241.914612 
	C271.084473,241.732269 276.301971,240.660599 281.580750,239.997742 
	C286.190460,239.418930 287.663025,241.680176 285.413422,245.907272 
	C283.149658,250.160873 280.534454,254.226578 278.116241,258.399536 
	C277.635529,259.229126 277.349365,260.171509 276.732819,261.631897 
	C279.793274,261.631897 282.417053,261.572113 285.036713,261.650391 
	C287.208893,261.715332 288.524963,262.981110 288.472565,265.117798 
	C288.425720,267.028595 287.100067,268.207062 285.187775,268.192108 
	C279.475952,268.147461 273.944916,269.115387 268.496979,270.754822 
	C266.946625,271.221375 265.425140,270.881989 264.468811,269.515564 
	C263.314056,267.865601 264.064026,266.331848 265.211731,264.996857 
	C269.460541,260.054749 272.954193,254.635437 275.929871,248.363205 
	C271.434204,247.520889 266.915253,250.297806 262.581421,247.322296 
z"/>
<path fill="#09C168" opacity="1.000000" stroke="none" 
	d="
M177.934326,269.929260 
	C176.593643,259.228119 182.185684,251.800919 191.124786,251.924042 
	C192.641098,251.944931 194.067368,252.186691 195.445419,252.906158 
	C200.564453,255.578781 203.353912,262.865326 201.905441,269.946716 
	C200.733994,275.673645 196.491074,279.640411 191.077103,280.070312 
	C184.570541,280.586945 180.596786,277.623718 177.934326,269.929260 
z"/>
<path fill="#08C168" opacity="1.000000" stroke="none" 
	d="
M206.407211,255.749847 
	C210.981827,248.904877 217.753952,246.541092 223.124588,249.643295 
	C228.942535,253.003922 231.308578,262.780823 227.986038,269.731537 
	C225.186417,275.588257 218.880844,278.202789 212.940521,275.970001 
	C205.811127,273.290283 203.038025,265.097961 206.407211,255.749847 
z"/>
<path fill="#0AC169" opacity="1.000000" stroke="none" 
	d="
M305.430267,240.635254 
	C304.840363,235.740967 304.337219,231.286606 303.835724,226.832062 
	C303.570221,224.473999 304.499451,222.873642 306.925262,222.587616 
	C309.384796,222.297607 310.616394,223.777618 310.901947,226.045731 
	C312.291168,237.080399 313.661285,248.117630 314.976379,259.161316 
	C315.266479,261.597626 315.094025,264.125488 311.906738,264.389252 
	C308.835266,264.643463 308.185791,262.413025 307.893799,259.849609 
	C307.179993,253.582535 306.319275,247.332169 305.430267,240.635254 
z"/>
<path fill="#0AC169" opacity="1.000000" stroke="none" 
	d="
M327.815186,247.134018 
	C328.251770,251.209045 328.680817,254.834732 329.006866,258.469666 
	C329.212555,260.762787 328.247559,262.522705 325.852020,262.720917 
	C323.453217,262.919373 322.289948,261.294556 322.009338,259.043518 
	C320.633972,248.009567 319.269806,236.974197 317.912628,225.937973 
	C317.602997,223.420258 317.787506,221.095886 321.059662,220.887497 
	C324.257874,220.683792 324.729767,222.955109 325.032806,225.454620 
	C325.891724,232.538864 326.846832,239.611420 327.815186,247.134018 
z"/>
<path fill="#0BC26A" opacity="1.000000" stroke="none" 
	d="
M294.273926,263.413849 
	C293.104309,256.486572 292.200287,249.932892 291.929169,243.294464 
	C291.817596,240.563919 292.546448,238.463715 295.422302,238.363113 
	C298.051941,238.271103 298.861755,240.324249 299.089233,242.754318 
	C299.660004,248.852234 300.383514,254.935928 301.054626,261.024353 
	C301.267975,262.960083 301.076447,264.709076 298.982361,265.571014 
	C296.912079,266.423126 295.476837,265.568909 294.273926,263.413849 
z"/>
<path fill="#0EC26B" opacity="1.000000" stroke="none" 
	d="
M291.109863,229.341248 
	C292.836578,226.663437 294.920044,226.134003 297.269165,227.606186 
	C298.613159,228.448456 299.319641,229.853027 298.710327,231.500244 
	C297.989990,233.447525 296.492828,234.424179 294.426239,234.205185 
	C291.791962,233.926041 290.640808,232.368683 291.109863,229.341248 
z"/>
<path fill="#F7F8F3" opacity="1.000000" stroke="none" 
	d="
M246.765625,265.955505 
	C241.855606,266.016357 239.211151,263.935516 238.858063,259.307495 
	C238.571518,255.551605 239.326233,252.214310 243.461929,251.087158 
	C246.414474,250.282455 249.583969,250.102524 250.982178,253.748795 
	C253.425583,260.120758 252.278732,263.539917 246.765625,265.955505 
z"/>
<path fill="#F4F7F2" opacity="1.000000" stroke="none" 
	d="
M340.522888,250.273209 
	C339.729736,244.069946 341.471466,240.405258 345.593231,238.718704 
	C347.630859,237.884949 349.062317,237.639145 349.160095,240.639786 
	C349.235352,242.949692 349.534637,245.323135 350.204559,247.525253 
	C351.081757,250.408661 351.361664,252.815659 347.824524,253.837891 
	C344.606781,254.767807 341.812958,254.508698 340.522888,250.273209 
z"/>
<path fill="#F6F8F3" opacity="1.000000" stroke="none" 
	d="
M191.639954,273.000000 
	C187.812378,273.730835 185.652542,272.218933 185.052292,268.936462 
	C184.403366,265.387848 184.532852,261.760040 188.034805,259.593262 
	C190.205597,258.250122 192.469528,258.400665 194.048691,260.938934 
	C196.443497,264.788177 195.641342,269.769012 191.639954,273.000000 
z"/>
<path fill="#F2F6F1" opacity="1.000000" stroke="none" 
	d="
M213.454529,257.754639 
	C215.401001,255.636490 217.450089,254.235474 219.773819,255.916718 
	C222.796753,258.103851 222.991379,261.605316 222.596924,264.923401 
	C222.279846,267.590515 220.523788,269.607330 217.722992,269.830109 
	C213.961456,270.129395 212.488586,267.576355 212.022278,264.301910 
	C211.711075,262.116516 212.102707,260.006348 213.454529,257.754639 
z"/>
</svg>